<mxfile host="app.diagrams.net" agent="Mozilla/5.0 (Windows NT 10.0; Win64; x64) AppleWebKit/537.36 (KHTML, like Gecko) Chrome/136.0.0.0 Safari/537.36 Edg/136.0.0.0" version="26.2.15">
  <diagram name="第 1 页" id="zdv0lMjCsN4sokP3X9Mt">
    <mxGraphModel dx="831" dy="436" grid="1" gridSize="10" guides="1" tooltips="1" connect="1" arrows="1" fold="1" page="1" pageScale="1" pageWidth="827" pageHeight="1169" math="0" shadow="0">
      <root>
        <mxCell id="0" />
        <mxCell id="1" parent="0" />
        <mxCell id="QjJ7ZUjCmfnHrdQIWr7Y-1" value="&lt;p class=&quot;MsoNormal&quot;&gt;&lt;span style=&quot;font-size: 12pt;&quot;&gt;&lt;font face=&quot;Times New Roman&quot;&gt;球员每个赛季三分、罚球、进攻、防守&lt;/font&gt;&lt;/span&gt;&lt;/p&gt;" style="rounded=0;whiteSpace=wrap;html=1;" vertex="1" parent="1">
          <mxGeometry x="330" y="240" width="186" height="60" as="geometry" />
        </mxCell>
        <mxCell id="QjJ7ZUjCmfnHrdQIWr7Y-4" value="" style="endArrow=none;html=1;rounded=0;exitX=0.354;exitY=-0.031;exitDx=0;exitDy=0;exitPerimeter=0;entryX=0.587;entryY=0.985;entryDx=0;entryDy=0;entryPerimeter=0;" edge="1" parent="1" source="QjJ7ZUjCmfnHrdQIWr7Y-1" target="QjJ7ZUjCmfnHrdQIWr7Y-5">
          <mxGeometry width="50" height="50" relative="1" as="geometry">
            <mxPoint x="370.31999999999994" y="240" as="sourcePoint" />
            <mxPoint x="370" y="170" as="targetPoint" />
          </mxGeometry>
        </mxCell>
        <mxCell id="QjJ7ZUjCmfnHrdQIWr7Y-5" value="&lt;font face=&quot;Times New Roman&quot;&gt;DisplayName&lt;/font&gt;" style="ellipse;whiteSpace=wrap;html=1;" vertex="1" parent="1">
          <mxGeometry x="294" y="90" width="120" height="80" as="geometry" />
        </mxCell>
        <mxCell id="QjJ7ZUjCmfnHrdQIWr7Y-12" value="" style="endArrow=none;html=1;rounded=0;entryX=0.5;entryY=0;entryDx=0;entryDy=0;" edge="1" parent="1" target="QjJ7ZUjCmfnHrdQIWr7Y-13">
          <mxGeometry width="50" height="50" relative="1" as="geometry">
            <mxPoint x="390" y="300" as="sourcePoint" />
            <mxPoint x="520" y="350" as="targetPoint" />
          </mxGeometry>
        </mxCell>
        <mxCell id="QjJ7ZUjCmfnHrdQIWr7Y-13" value="&lt;font face=&quot;Times New Roman&quot;&gt;FtPct&lt;/font&gt;" style="ellipse;whiteSpace=wrap;html=1;" vertex="1" parent="1">
          <mxGeometry x="310" y="360" width="120" height="80" as="geometry" />
        </mxCell>
        <mxCell id="QjJ7ZUjCmfnHrdQIWr7Y-14" value="" style="endArrow=none;html=1;rounded=0;exitX=0.645;exitY=0;exitDx=0;exitDy=0;exitPerimeter=0;" edge="1" parent="1" source="QjJ7ZUjCmfnHrdQIWr7Y-1">
          <mxGeometry width="50" height="50" relative="1" as="geometry">
            <mxPoint x="466" y="220" as="sourcePoint" />
            <mxPoint x="500" y="170" as="targetPoint" />
          </mxGeometry>
        </mxCell>
        <mxCell id="QjJ7ZUjCmfnHrdQIWr7Y-15" value="&lt;font face=&quot;Times New Roman&quot;&gt;TpPct&lt;/font&gt;" style="ellipse;whiteSpace=wrap;html=1;" vertex="1" parent="1">
          <mxGeometry x="450" y="90" width="120" height="80" as="geometry" />
        </mxCell>
        <mxCell id="QjJ7ZUjCmfnHrdQIWr7Y-16" value="&lt;font face=&quot;Times New Roman&quot;&gt;OffRebsPg&lt;/font&gt;" style="ellipse;whiteSpace=wrap;html=1;" vertex="1" parent="1">
          <mxGeometry x="440" y="360" width="120" height="80" as="geometry" />
        </mxCell>
        <mxCell id="QjJ7ZUjCmfnHrdQIWr7Y-17" value="" style="endArrow=none;html=1;rounded=0;entryX=0.417;entryY=0;entryDx=0;entryDy=0;entryPerimeter=0;" edge="1" parent="1" target="QjJ7ZUjCmfnHrdQIWr7Y-16">
          <mxGeometry width="50" height="50" relative="1" as="geometry">
            <mxPoint x="470" y="300" as="sourcePoint" />
            <mxPoint x="450" y="360" as="targetPoint" />
          </mxGeometry>
        </mxCell>
        <mxCell id="QjJ7ZUjCmfnHrdQIWr7Y-18" value="" style="endArrow=none;html=1;rounded=0;exitX=0.645;exitY=0;exitDx=0;exitDy=0;exitPerimeter=0;" edge="1" parent="1">
          <mxGeometry width="50" height="50" relative="1" as="geometry">
            <mxPoint x="516" y="270" as="sourcePoint" />
            <mxPoint x="600" y="270" as="targetPoint" />
          </mxGeometry>
        </mxCell>
        <mxCell id="QjJ7ZUjCmfnHrdQIWr7Y-19" value="&lt;font face=&quot;Times New Roman&quot;&gt;DefRebsPg&lt;/font&gt;" style="ellipse;whiteSpace=wrap;html=1;" vertex="1" parent="1">
          <mxGeometry x="600" y="220" width="120" height="80" as="geometry" />
        </mxCell>
      </root>
    </mxGraphModel>
  </diagram>
</mxfile>
